<svg xml:space="preserve" viewBox="0 0 100 100" y="0" x="0" xmlns="http://www.w3.org/2000/svg" id="圖層_1" version="1.1" style="height: 100%; width: 100%; background: rgb(255, 255, 255);" width="128px" height="128px"><g class="ldl-scale" style="transform-origin: 50% 50%; transform: scale(0.8);"><g class="ldl-ani"><g class="ldl-layer"><g class="ldl-ani" style="transform-origin: 50px 50px; opacity: 1; animation: 1.42857s linear -0.12987s infinite normal forwards running fade-adcce3ee-a9a0-40d6-94f4-b36561290b51;"><path stroke-miterlimit="10" stroke-width="2" stroke="#333" fill="#a0c8d7" d="M16.907 36.62v38.55a4.46 4.46 0 0 0 4.459 4.459H50V36.62H16.907z" style="fill: rgb(160, 200, 215); stroke: rgb(51, 51, 51);"></path></g></g><g class="ldl-layer"><g class="ldl-ani" style="transform-origin: 50px 50px; opacity: 1; animation: 1.42857s linear -0.25974s infinite normal forwards running fade-adcce3ee-a9a0-40d6-94f4-b36561290b51;"><path d="M50 37.128h-9.724L17.72 59.683v10.098L50 37.501z" fill="#fff" style="fill: rgb(255, 255, 255);"></path></g></g><g class="ldl-layer"><g class="ldl-ani" style="transform-origin: 50px 50px; opacity: 1; animation: 1.42857s linear -0.38961s infinite normal forwards running fade-adcce3ee-a9a0-40d6-94f4-b36561290b51;"><path fill="#fff" d="M50 42.573L17.731 74.842c.025.977.377 1.864.944 2.578L50 46.095v-3.522z" style="fill: rgb(255, 255, 255);"></path></g></g><g class="ldl-layer"><g class="ldl-ani" style="transform-origin: 50px 50px; opacity: 1; animation: 1.42857s linear -0.519481s infinite normal forwards running fade-adcce3ee-a9a0-40d6-94f4-b36561290b51;"><path d="M55.348 54.611h21.985v25.018H55.348z" stroke-miterlimit="10" stroke-width="2" stroke="#333" fill="#66503a" style="fill: rgb(102, 80, 58); stroke: rgb(51, 51, 51);"></path></g></g><g class="ldl-layer"><g class="ldl-ani" style="transform-origin: 50px 50px; opacity: 1; animation: 1.42857s linear -0.649351s infinite normal forwards running fade-adcce3ee-a9a0-40d6-94f4-b36561290b51;"><path stroke-miterlimit="10" stroke-width="2" stroke="#333" fill="#e0e0e0" d="M50 36.62v43.009h5.348V54.611h21.985v25.018h1.301a4.46 4.46 0 0 0 4.459-4.459V36.62H50z" style="fill: rgb(224, 224, 224); stroke: rgb(51, 51, 51);"></path></g></g><g class="ldl-layer"><g class="ldl-ani" style="transform-origin: 50px 50px; opacity: 1; animation: 1.42857s linear -0.779221s infinite normal forwards running fade-adcce3ee-a9a0-40d6-94f4-b36561290b51;"><path stroke-miterlimit="10" stroke-width="2" stroke="#333" fill="#c33737" d="M15.833 49.649h0A6.833 6.833 0 0 1 9 42.816l7.562-20.799a2.5 2.5 0 0 1 2.351-1.647h9.194l-5.441 22.446a6.832 6.832 0 0 1-6.833 6.833z" style="fill: rgb(195, 55, 55); stroke: rgb(51, 51, 51);"></path></g></g><g class="ldl-layer"><g class="ldl-ani" style="transform-origin: 50px 50px; opacity: 1; animation: 1.42857s linear -0.909091s infinite normal forwards running fade-adcce3ee-a9a0-40d6-94f4-b36561290b51;"><path stroke-miterlimit="10" stroke-width="2" stroke="#333" fill="#f5e6c8" d="M29.5 49.649h0a6.833 6.833 0 0 1-6.833-6.833l5.441-22.446h10.946l-2.72 22.446a6.834 6.834 0 0 1-6.834 6.833z" style="fill: rgb(245, 230, 200); stroke: rgb(51, 51, 51);"></path></g></g><g class="ldl-layer"><g class="ldl-ani" style="transform-origin: 50px 50px; opacity: 1; animation: 1.42857s linear -1.03896s infinite normal forwards running fade-adcce3ee-a9a0-40d6-94f4-b36561290b51;"><path stroke-miterlimit="10" stroke-width="2" stroke="#333" fill="#c33737" d="M43.167 49.649h0a6.833 6.833 0 0 1-6.833-6.833l2.72-22.446H50v22.446a6.833 6.833 0 0 1-6.833 6.833z" style="fill: rgb(195, 55, 55); stroke: rgb(51, 51, 51);"></path></g></g><g class="ldl-layer"><g class="ldl-ani" style="transform-origin: 50px 50px; opacity: 1; animation: 1.42857s linear -1.16883s infinite normal forwards running fade-adcce3ee-a9a0-40d6-94f4-b36561290b51;"><path stroke-miterlimit="10" stroke-width="2" stroke="#333" fill="#f5e6c8" d="M56.833 49.649h0A6.833 6.833 0 0 1 50 42.816V20.371h10.946l2.72 22.446a6.832 6.832 0 0 1-6.833 6.832z" style="fill: rgb(245, 230, 200); stroke: rgb(51, 51, 51);"></path></g></g><g class="ldl-layer"><g class="ldl-ani" style="transform-origin: 50px 50px; opacity: 1; animation: 1.42857s linear -1.2987s infinite normal forwards running fade-adcce3ee-a9a0-40d6-94f4-b36561290b51;"><path stroke-miterlimit="10" stroke-width="2" stroke="#333" fill="#c33737" d="M70.5 49.649h0a6.833 6.833 0 0 1-6.833-6.833l-2.72-22.446h10.946l5.441 22.446a6.834 6.834 0 0 1-6.834 6.833z" style="fill: rgb(195, 55, 55); stroke: rgb(51, 51, 51);"></path></g></g><g class="ldl-layer"><g class="ldl-ani" style="transform-origin: 50px 50px; opacity: 1; animation: 1.42857s linear -1.42857s infinite normal forwards running fade-adcce3ee-a9a0-40d6-94f4-b36561290b51;"><path stroke-miterlimit="10" stroke-width="2" stroke="#333" fill="#f5e6c8" d="M84.167 49.649h0a6.833 6.833 0 0 1-6.833-6.833L71.893 20.37h9.194c1.052 0 1.991.658 2.351 1.647L91 42.816a6.833 6.833 0 0 1-6.833 6.833z" style="fill: rgb(245, 230, 200); stroke: rgb(51, 51, 51);"></path></g></g><metadata xmlns:d="https://loading.io/stock/"><d:name>shop</d:name><d:tags>vendor,food stand,sell,business,shop,business</d:tags><d:license>pro</d:license><d:slug>mfxc3x</d:slug></metadata></g></g></svg>